<?xml version="1.0" encoding="UTF-8"?>
<!DOCTYPE svg PUBLIC "-//W3C//DTD SVG 1.1//EN" "http://www.w3.org/Graphics/SVG/1.1/DTD/svg11.dtd">
<svg xmlns="http://www.w3.org/2000/svg" version="1.1" width="500px" height="500px" style="shape-rendering:geometricPrecision; text-rendering:geometricPrecision; image-rendering:optimizeQuality; fill-rule:evenodd; clip-rule:evenodd" xmlns:xlink="http://www.w3.org/1999/xlink">
<g><path style="opacity:1" fill="#fefefe" d="M -0.5,-0.5 C 166.167,-0.5 332.833,-0.5 499.5,-0.5C 499.5,166.167 499.5,332.833 499.5,499.5C 332.833,499.5 166.167,499.5 -0.5,499.5C -0.5,332.833 -0.5,166.167 -0.5,-0.5 Z"/></g>
<g><path style="opacity:1" fill="#470e67" d="M 251.5,110.5 C 251.973,111.906 252.973,112.573 254.5,112.5C 256.153,112.66 257.486,113.326 258.5,114.5C 257.039,117.536 257.873,118.536 261,117.5C 266.098,120.8 271.598,123.133 277.5,124.5C 303.418,137.104 329.084,150.104 354.5,163.5C 356.026,166.893 358.693,168.226 362.5,167.5C 363.492,167.328 364.158,167.662 364.5,168.5C 368.01,172.28 372.343,174.614 377.5,175.5C 396.484,184.325 415.151,193.659 433.5,203.5C 438.355,207.764 444.021,210.764 450.5,212.5C 459.979,216.405 468.979,221.072 477.5,226.5C 477.443,227.609 477.11,228.609 476.5,229.5C 475.833,230.167 475.167,230.833 474.5,231.5C 471.406,232.213 468.406,233.213 465.5,234.5C 462.923,234.455 460.923,235.455 459.5,237.5C 458.486,238.674 457.153,239.34 455.5,239.5C 451.174,239.853 447.507,241.52 444.5,244.5C 444.158,245.338 443.492,245.672 442.5,245.5C 439.082,245.924 436.082,247.258 433.5,249.5C 433.158,250.338 432.492,250.672 431.5,250.5C 430.07,250.579 428.736,250.246 427.5,249.5C 425.272,251.699 422.939,253.699 420.5,255.5C 413.912,258.457 407.245,261.457 400.5,264.5C 398.396,264.201 396.396,264.534 394.5,265.5C 392.08,267.299 389.746,268.966 387.5,270.5C 387.158,271.338 386.492,271.672 385.5,271.5C 382.082,271.924 379.082,273.258 376.5,275.5C 376.158,276.338 375.492,276.672 374.5,276.5C 370.835,276.502 367.835,277.835 365.5,280.5C 364.035,281.737 362.368,282.737 360.5,283.5C 358.316,282.892 356.316,283.559 354.5,285.5C 353.035,286.737 351.368,287.737 349.5,288.5C 347.316,287.892 345.316,288.559 343.5,290.5C 342.035,291.737 340.368,292.737 338.5,293.5C 338.44,292.957 338.107,292.624 337.5,292.5C 335.402,292.957 333.736,293.957 332.5,295.5C 332.158,296.338 331.492,296.672 330.5,296.5C 326.594,297.61 322.594,298.443 318.5,299C 315.851,301.256 313.184,303.423 310.5,305.5C 309.486,306.674 308.153,307.34 306.5,307.5C 303.654,307.552 301.32,308.552 299.5,310.5C 299.158,311.338 298.492,311.672 297.5,311.5C 294.369,310.908 292.036,311.908 290.5,314.5C 289.833,315.167 289.167,315.833 288.5,316.5C 287.833,316.5 287.167,316.5 286.5,316.5C 283.353,316.737 280.353,317.57 277.5,319C 276.619,319.708 275.953,320.542 275.5,321.5C 273.447,321.402 271.78,322.069 270.5,323.5C 266.314,325.759 261.98,327.759 257.5,329.5C 255.409,329.682 253.409,329.348 251.5,328.5C 250.614,329.325 250.281,330.325 250.5,331.5C 248.692,331.509 247.025,331.009 245.5,330C 240.112,325.977 234.446,322.477 228.5,319.5C 227.71,318.206 226.71,317.039 225.5,316C 214.234,308.544 202.9,301.378 191.5,294.5C 186.197,289.511 180.197,285.511 173.5,282.5C 165.33,276.153 156.83,270.153 148,264.5C 148.696,262.305 149.362,260.305 150,258.5C 150.75,259.126 151.584,259.626 152.5,260C 151.549,260.718 151.383,261.551 152,262.5C 153.949,262.537 155.782,262.037 157.5,261C 156.377,259.956 155.044,259.29 153.5,259C 155.134,258.506 156.801,258.34 158.5,258.5C 158.5,259.833 158.5,261.167 158.5,262.5C 159.93,262.579 161.264,262.246 162.5,261.5C 167.731,264.23 171.731,262.897 174.5,257.5C 213.136,238.182 251.802,218.849 290.5,199.5C 292.97,199.346 294.97,198.346 296.5,196.5C 311.105,188.863 325.772,181.196 340.5,173.5C 322.835,164.169 305.168,155.169 287.5,146.5C 287.586,145.504 287.252,144.671 286.5,144C 283.167,142.333 279.833,140.667 276.5,139C 274.934,138.235 273.601,138.402 272.5,139.5C 230.48,155.18 188.48,170.846 146.5,186.5C 144.033,186.755 142.033,187.755 140.5,189.5C 123.419,195.306 106.586,201.64 90,208.5C 89.3828,209.449 89.5494,210.282 90.5,211C 97.2411,214.693 103.574,218.86 109.5,223.5C 111.307,225.591 112.307,227.758 112.5,230C 110.226,230.47 108.226,231.47 106.5,233C 107.993,234.156 107.826,234.99 106,235.5C 104.028,233.922 101.862,233.089 99.5,233C 113.627,242.903 127.96,252.569 142.5,262C 145.149,263.631 146.816,265.965 147.5,269C 146.956,269.717 146.289,270.217 145.5,270.5C 133.816,263.14 122.149,255.807 110.5,248.5C 85.6526,230.33 59.9859,213.33 33.5,197.5C 29.4157,193.945 25.0824,190.611 20.5,187.5C 20.9767,186.522 21.6433,185.689 22.5,185C 22.1667,184.667 21.8333,184.333 21.5,184C 23.1667,183.333 24.8333,183.333 26.5,184C 35.1667,190 43.8333,196 52.5,202C 55.7007,204.267 59.0341,205.934 62.5,207C 48.3394,197.086 34.006,187.419 19.5,178C 18.6634,176.989 18.33,175.822 18.5,174.5C 20.1992,174.66 21.8659,174.494 23.5,174C 24.756,173.583 25.4226,172.75 25.5,171.5C 27.5145,170.076 29.8478,169.41 32.5,169.5C 38.0731,169.773 43.4065,168.773 48.5,166.5C 49.2975,166.043 49.6309,165.376 49.5,164.5C 63.9762,159.877 78.6428,155.543 93.5,151.5C 95.7918,152.846 97.7918,152.512 99.5,150.5C 100.99,148.72 102.99,148.054 105.5,148.5C 105.735,149.097 106.235,149.43 107,149.5C 108.5,149 110,148.5 111.5,148C 112.756,147.583 113.423,146.75 113.5,145.5C 155.041,134.072 196.541,122.406 238,110.5C 242.217,110.063 246.717,110.063 251.5,110.5 Z"/></g>
<g><path style="opacity:1" fill="#524d51" d="M 251.5,110.5 C 253.027,110.427 254.027,111.094 254.5,112.5C 252.973,112.573 251.973,111.906 251.5,110.5 Z"/></g>
<g><path style="opacity:1" fill="#3d1d53" d="M 258.5,114.5 C 265.315,117.073 271.649,120.406 277.5,124.5C 271.598,123.133 266.098,120.8 261,117.5C 257.873,118.536 257.039,117.536 258.5,114.5 Z"/></g>
<g><path style="opacity:1" fill="#361947" d="M 272.5,139.5 C 273.601,138.402 274.934,138.235 276.5,139C 279.833,140.667 283.167,142.333 286.5,144C 287.252,144.671 287.586,145.504 287.5,146.5C 282.349,144.424 277.349,142.09 272.5,139.5 Z"/></g>
<g><path style="opacity:1" fill="#8c7c90" d="M 113.5,145.5 C 113.423,146.75 112.756,147.583 111.5,148C 110,148.5 108.5,149 107,149.5C 106.235,149.43 105.735,149.097 105.5,148.5C 108.124,147.506 110.79,146.506 113.5,145.5 Z"/></g>
<g><path style="opacity:1" fill="#746378" d="M 93.5,151.5 C 95.2646,150.539 97.2646,150.205 99.5,150.5C 97.7918,152.512 95.7918,152.846 93.5,151.5 Z"/></g>
<g><path style="opacity:1" fill="#3d234a" d="M 354.5,163.5 C 357.485,164.326 360.151,165.659 362.5,167.5C 358.693,168.226 356.026,166.893 354.5,163.5 Z"/></g>
<g><path style="opacity:1" fill="#38184f" d="M 49.5,164.5 C 49.6309,165.376 49.2975,166.043 48.5,166.5C 43.4065,168.773 38.0731,169.773 32.5,169.5C 37.8943,167.261 43.561,165.594 49.5,164.5 Z"/></g>
<g><path style="opacity:1" fill="#e9dfee" d="M 272.5,139.5 C 277.349,142.09 282.349,144.424 287.5,146.5C 305.168,155.169 322.835,164.169 340.5,173.5C 325.772,181.196 311.105,188.863 296.5,196.5C 294.03,196.654 292.03,197.654 290.5,199.5C 251.802,218.849 213.136,238.182 174.5,257.5C 172.388,258.44 170.388,259.606 168.5,261C 167.167,261.667 165.833,261.667 164.5,261C 146.138,248.49 127.805,235.99 109.5,223.5C 103.574,218.86 97.2411,214.693 90.5,211C 89.5494,210.282 89.3828,209.449 90,208.5C 106.586,201.64 123.419,195.306 140.5,189.5C 142.967,189.245 144.967,188.245 146.5,186.5C 188.48,170.846 230.48,155.18 272.5,139.5 Z"/></g>
<g><path style="opacity:1" fill="#0f080b" d="M 230.5,165.5 C 232.027,165.427 233.027,166.094 233.5,167.5C 231.973,167.573 230.973,166.906 230.5,165.5 Z"/></g>
<g><path style="opacity:1" fill="#e9dfee" d="M 236.5,169.5 C 236.027,168.094 235.027,167.427 233.5,167.5C 233.027,166.094 232.027,165.427 230.5,165.5C 230.414,164.504 230.748,163.671 231.5,163C 242.537,157.393 252.37,158.893 261,167.5C 265.096,173.683 264.263,179.017 258.5,183.5C 251.399,178.386 244.066,173.719 236.5,169.5 Z"/></g>
<g><path style="opacity:1" fill="#272427" d="M 269.5,160.5 C 270.497,159.287 271.497,159.454 272.5,161C 271.423,161.47 270.423,161.303 269.5,160.5 Z"/></g>
<g><path style="opacity:1" fill="#1f1d1f" d="M 274.5,146.5 C 276.379,146.393 276.712,146.893 275.5,148C 271.5,150 267.5,152 263.5,154C 262.167,154.667 262.167,155.333 263.5,156C 261.924,156.388 260.591,155.888 259.5,154.5C 264.447,151.842 269.447,149.175 274.5,146.5 Z"/></g>
<g><path style="opacity:1" fill="#080607" d="M 233.5,167.5 C 235.027,167.427 236.027,168.094 236.5,169.5C 234.973,169.573 233.973,168.906 233.5,167.5 Z"/></g>
<g><path style="opacity:1" fill="#161416" d="M 299.5,157.5 C 301.233,158.008 301.566,158.841 300.5,160C 295.204,162.539 289.87,164.872 284.5,167C 292.5,171.667 300.5,176.333 308.5,181C 315.594,178.46 322.594,175.294 329.5,171.5C 330.521,172.002 330.688,172.668 330,173.5C 323.549,177.307 317.049,180.974 310.5,184.5C 299.001,177.918 287.667,171.085 276.5,164C 278.368,163.996 280.202,164.496 282,165.5C 288.146,163.295 293.98,160.628 299.5,157.5 Z"/></g>
<g><path style="opacity:1" fill="#351f44" d="M 364.5,168.5 C 369.32,170.074 373.653,172.407 377.5,175.5C 372.343,174.614 368.01,172.28 364.5,168.5 Z"/></g>
<g><path style="opacity:1" fill="#3e1257" d="M 25.5,171.5 C 25.4226,172.75 24.756,173.583 23.5,174C 21.8659,174.494 20.1992,174.66 18.5,174.5C 18.33,175.822 18.6634,176.989 19.5,178C 34.006,187.419 48.3394,197.086 62.5,207C 59.0341,205.934 55.7007,204.267 52.5,202C 43.8333,196 35.1667,190 26.5,184C 24.8333,183.333 23.1667,183.333 21.5,184C 21.8333,184.333 22.1667,184.667 22.5,185C 21.6433,185.689 20.9767,186.522 20.5,187.5C 25.0824,190.611 29.4157,193.945 33.5,197.5C 25.9342,193.281 18.6008,188.614 11.5,183.5C 10.3373,185.55 10.5039,187.55 12,189.5C 14.7213,191.424 16.888,193.758 18.5,196.5C 17.3951,195.4 16.0618,194.733 14.5,194.5C 13.6591,207.758 13.1591,221.758 13,236.5C 12.2917,235.619 11.4584,234.953 10.5,234.5C 9.53141,226.252 9.19808,217.918 9.5,209.5C 8.89751,199.24 9.56418,189.24 11.5,179.5C 12.1635,177.958 12.8302,176.291 13.5,174.5C 17.4088,173.085 21.4088,172.085 25.5,171.5 Z"/></g>
<g><path style="opacity:1" fill="#1b181d" d="M 11.5,179.5 C 9.56418,189.24 8.89751,199.24 9.5,209.5C 8.50598,199.681 8.17265,189.681 8.5,179.5C 9.5,179.5 10.5,179.5 11.5,179.5 Z"/></g>
<g><path style="opacity:1" fill="#151314" d="M 236.5,169.5 C 244.066,173.719 251.399,178.386 258.5,183.5C 264.263,179.017 265.096,173.683 261,167.5C 252.37,158.893 242.537,157.393 231.5,163C 230.748,163.671 230.414,164.504 230.5,165.5C 229.244,165.539 228.244,165.039 227.5,164C 235.933,158.972 244.933,157.305 254.5,159C 261.806,162.134 265.806,167.634 266.5,175.5C 265.074,179.349 263.574,183.016 262,186.5C 268.789,190.303 275.289,194.47 281.5,199C 281.167,199.333 280.833,199.667 280.5,200C 278.402,199.968 276.402,199.301 274.5,198C 261.65,188.637 248.983,179.137 236.5,169.5 Z"/></g>
<g><path style="opacity:1" fill="#665a6c" d="M 146.5,186.5 C 144.967,188.245 142.967,189.245 140.5,189.5C 142.033,187.755 144.033,186.755 146.5,186.5 Z"/></g>
<g><path style="opacity:1" fill="#151314" d="M 155.5,193.5 C 153.302,193.409 152.969,194.075 154.5,195.5C 152.068,194.25 149.734,192.75 147.5,191C 148,190.5 148.5,190 149,189.5C 151.173,190.933 153.34,192.266 155.5,193.5 Z"/></g>
<g><path style="opacity:1" fill="#918b92" d="M 155.5,193.5 C 157.698,193.12 159.365,193.787 160.5,195.5C 160.5,195.833 160.5,196.167 160.5,196.5C 159.508,196.328 158.842,196.662 158.5,197.5C 157.395,196.4 156.062,195.733 154.5,195.5C 152.969,194.075 153.302,193.409 155.5,193.5 Z"/></g>
<g><path style="opacity:1" fill="#302036" d="M 14.5,194.5 C 14.3334,210.503 14.5001,226.503 15,242.5C 15.3826,243.056 15.8826,243.389 16.5,243.5C 19.8726,246.178 23.2059,248.844 26.5,251.5C 21.0584,249.277 16.0584,246.277 11.5,242.5C 10.6072,239.916 10.2739,237.249 10.5,234.5C 11.4584,234.953 12.2917,235.619 13,236.5C 13.1591,221.758 13.6591,207.758 14.5,194.5 Z"/></g>
<g><path style="opacity:1" fill="#24162e" d="M 296.5,196.5 C 294.97,198.346 292.97,199.346 290.5,199.5C 292.03,197.654 294.03,196.654 296.5,196.5 Z"/></g>
<g><path style="opacity:1" fill="#d4a8d2" d="M 14.5,194.5 C 16.0618,194.733 17.3951,195.4 18.5,196.5C 24.9398,201.374 31.6065,205.707 38.5,209.5C 50.4735,218.825 63.1401,227.158 76.5,234.5C 99.3197,250.078 122.32,265.412 145.5,280.5C 146.423,284.064 146.756,287.731 146.5,291.5C 145.058,292.82 144.392,294.486 144.5,296.5C 142.234,296.141 140.401,296.808 139,298.5C 138.667,298.167 138.333,297.833 138,297.5C 136.508,302.411 136.174,307.411 137,312.5C 137.412,314.997 138.578,316.997 140.5,318.5C 142.06,324.415 141.727,330.082 139.5,335.5C 137.315,335.296 135.315,334.63 133.5,333.5C 132.738,331.738 131.404,330.738 129.5,330.5C 128.415,328.413 126.749,327.08 124.5,326.5C 123.415,324.413 121.749,323.08 119.5,322.5C 118.415,320.413 116.749,319.08 114.5,318.5C 112.05,317.289 110.05,315.622 108.5,313.5C 107.738,311.738 106.404,310.738 104.5,310.5C 87.7656,296.102 70.4323,282.435 52.5,269.5C 48.4851,265.487 44.1518,261.821 39.5,258.5C 32.4623,251.602 24.7956,245.768 16.5,241C 17.5981,241.77 17.5981,242.603 16.5,243.5C 15.8826,243.389 15.3826,243.056 15,242.5C 14.5001,226.503 14.3334,210.503 14.5,194.5 Z"/></g>
<g><path style="opacity:1" fill="#120f11" d="M 160.5,196.5 C 160.5,196.167 160.5,195.833 160.5,195.5C 171.917,199.697 183.25,204.197 194.5,209C 201.457,211.486 208.457,213.486 215.5,215C 202.976,203.475 190.809,191.642 179,179.5C 178.333,178.833 178.333,178.167 179,177.5C 194.126,193.134 210.293,207.467 227.5,220.5C 228.386,221.325 228.719,222.325 228.5,223.5C 216.638,219.075 204.638,214.909 192.5,211C 181.931,205.881 171.264,201.047 160.5,196.5 Z"/></g>
<g><path style="opacity:1" fill="#171516" d="M 204.5,168.5 C 211.655,167.829 218.322,169.329 224.5,173C 233.322,179.911 242.322,186.577 251.5,193C 253.667,195.833 255.833,198.667 258,201.5C 260.655,213.843 255.821,218.343 243.5,215C 223.81,206.476 209.143,192.643 199.5,173.5C 201.567,172.233 203.234,170.567 204.5,168.5 Z"/></g>
<g><path style="opacity:1" fill="#eae0ef" d="M 205.5,171.5 C 211.974,171.119 217.974,172.619 223.5,176C 231.657,182.245 239.99,188.245 248.5,194C 251.04,196.205 253.207,198.705 255,201.5C 258.167,211.667 254.667,215.167 244.5,212C 237.09,209.128 230.09,205.461 223.5,201C 216.294,193.463 209.46,185.629 203,177.5C 203.483,175.463 204.316,173.463 205.5,171.5 Z"/></g>
<g><path style="opacity:1" fill="#151314" d="M 154.5,195.5 C 156.062,195.733 157.395,196.4 158.5,197.5C 173.599,207.558 188.932,217.392 204.5,227C 206.439,227.908 207.439,229.408 207.5,231.5C 206.448,231.649 205.448,231.483 204.5,231C 193.772,223.274 182.772,215.941 171.5,209C 165.646,204.636 159.979,200.136 154.5,195.5 Z"/></g>
<g><path style="opacity:1" fill="#382047" d="M 433.5,203.5 C 439.65,205.74 445.316,208.74 450.5,212.5C 444.021,210.764 438.355,207.764 433.5,203.5 Z"/></g>
<g><path style="opacity:1" fill="#886f90" d="M 38.5,209.5 C 41.2234,210.352 43.89,211.519 46.5,213C 56.7433,219.943 66.7433,227.11 76.5,234.5C 63.1401,227.158 50.4735,218.825 38.5,209.5 Z"/></g>
<g><path style="opacity:1" fill="#300b43" d="M 33.5,197.5 C 59.9859,213.33 85.6526,230.33 110.5,248.5C 84.3102,232.242 58.6435,215.242 33.5,197.5 Z"/></g>
<g><path style="opacity:1" fill="#41105e" d="M 109.5,223.5 C 127.805,235.99 146.138,248.49 164.5,261C 165.833,261.667 167.167,261.667 168.5,261C 170.388,259.606 172.388,258.44 174.5,257.5C 171.731,262.897 167.731,264.23 162.5,261.5C 161.264,262.246 159.93,262.579 158.5,262.5C 158.5,261.167 158.5,259.833 158.5,258.5C 156.801,258.34 155.134,258.506 153.5,259C 155.044,259.29 156.377,259.956 157.5,261C 155.782,262.037 153.949,262.537 152,262.5C 151.383,261.551 151.549,260.718 152.5,260C 151.584,259.626 150.75,259.126 150,258.5C 149.362,260.305 148.696,262.305 148,264.5C 156.83,270.153 165.33,276.153 173.5,282.5C 170.475,281.235 167.642,279.568 165,277.5C 164.779,280.943 163.779,281.276 162,278.5C 161.517,279.448 161.351,280.448 161.5,281.5C 155.782,278.314 150.448,274.648 145.5,270.5C 146.289,270.217 146.956,269.717 147.5,269C 146.816,265.965 145.149,263.631 142.5,262C 127.96,252.569 113.627,242.903 99.5,233C 101.862,233.089 104.028,233.922 106,235.5C 107.826,234.99 107.993,234.156 106.5,233C 108.226,231.47 110.226,230.47 112.5,230C 112.307,227.758 111.307,225.591 109.5,223.5 Z"/></g>
<g><path style="opacity:1" fill="#221e28" d="M 477.5,226.5 C 481.358,228.041 481.025,229.041 476.5,229.5C 477.11,228.609 477.443,227.609 477.5,226.5 Z"/></g>
<g><path style="opacity:1" fill="#151214" d="M 135.5,196.5 C 137.888,197.219 139.388,198.885 140,201.5C 142.901,209.883 145.734,218.216 148.5,226.5C 166.529,228.803 184.529,231.303 202.5,234C 197.345,235.61 192.012,235.943 186.5,235C 174.433,233.727 162.433,232.227 150.5,230.5C 150.472,232.582 151.139,234.416 152.5,236C 159.419,240.376 166.252,244.876 173,249.5C 173.688,250.332 173.521,250.998 172.5,251.5C 152.268,238.224 132.601,224.224 113.5,209.5C 114.722,206.911 116.722,206.077 119.5,207C 126.307,212.905 133.641,218.071 141.5,222.5C 141.833,222 142.167,221.5 142.5,221C 139.452,213.024 137.119,204.858 135.5,196.5 Z"/></g>
<g><path style="opacity:1" fill="#241833" d="M 465.5,234.5 C 463.97,236.346 461.97,237.346 459.5,237.5C 460.923,235.455 462.923,234.455 465.5,234.5 Z"/></g>
<g><path style="opacity:1" fill="#b5aca7" d="M 490.5,232.5 C 493.059,232.39 495.392,233.056 497.5,234.5C 493.678,236.441 489.678,237.774 485.5,238.5C 487.985,236.992 490.652,235.659 493.5,234.5C 492.398,233.824 491.398,233.158 490.5,232.5 Z"/></g>
<g><path style="opacity:1" fill="#a085a5" d="M 39.5,258.5 C 39.44,259.043 39.1067,259.376 38.5,259.5C 37.0603,258.048 35.3936,257.048 33.5,256.5C 30.6298,255.567 28.2964,253.9 26.5,251.5C 23.2059,248.844 19.8726,246.178 16.5,243.5C 17.5981,242.603 17.5981,241.77 16.5,241C 24.7956,245.768 32.4623,251.602 39.5,258.5 Z"/></g>
<g><path style="opacity:1" fill="#1e1622" d="M 455.5,239.5 C 455.5,239.833 455.5,240.167 455.5,240.5C 451.931,242.119 448.264,243.452 444.5,244.5C 447.507,241.52 451.174,239.853 455.5,239.5 Z"/></g>
<g><path style="opacity:1" fill="#1a1322" d="M 442.5,245.5 C 439.912,247.625 436.912,248.958 433.5,249.5C 436.082,247.258 439.082,245.924 442.5,245.5 Z"/></g>
<g><path style="opacity:1" fill="#441063" d="M 33.5,197.5 C 58.6435,215.242 84.3102,232.242 110.5,248.5C 125.167,258.833 139.833,269.167 154.5,279.5C 152.77,280.026 151.436,281.026 150.5,282.5C 148.833,281.833 147.167,281.167 145.5,280.5C 122.32,265.412 99.3197,250.078 76.5,234.5C 66.7433,227.11 56.7433,219.943 46.5,213C 43.89,211.519 41.2234,210.352 38.5,209.5C 31.6065,205.707 24.9398,201.374 18.5,196.5C 16.888,193.758 14.7213,191.424 12,189.5C 10.5039,187.55 10.3373,185.55 11.5,183.5C 18.6008,188.614 25.9342,193.281 33.5,197.5 Z"/></g>
<g><path style="opacity:1" fill="#2c143a" d="M 431.5,250.5 C 428.249,252.957 424.582,254.624 420.5,255.5C 422.939,253.699 425.272,251.699 427.5,249.5C 428.736,250.246 430.07,250.579 431.5,250.5 Z"/></g>
<g><path style="opacity:1" fill="#eae3d0" d="M 478.5,246.5 C 469.657,251.087 460.657,255.421 451.5,259.5C 450.761,259.631 450.094,259.464 449.5,259C 452.239,257.974 454.572,256.474 456.5,254.5C 461.098,253.535 465.098,251.535 468.5,248.5C 471.573,247.801 474.573,246.801 477.5,245.5C 478.107,245.624 478.44,245.957 478.5,246.5 Z"/></g>
<g><path style="opacity:1" fill="#bfb19b" d="M 485.5,238.5 C 482.825,240.376 483.158,241.876 486.5,243C 484.98,244.885 483.98,247.051 483.5,249.5C 486.163,251.516 485.83,252.849 482.5,253.5C 481.817,251.824 480.483,251.157 478.5,251.5C 479.635,250.526 480.635,249.359 481.5,248C 480.756,246.961 479.756,246.461 478.5,246.5C 478.44,245.957 478.107,245.624 477.5,245.5C 474.573,246.801 471.573,247.801 468.5,248.5C 465.098,251.535 461.098,253.535 456.5,254.5C 457.347,252.156 459.014,250.656 461.5,250C 460.5,249.667 459.5,249.333 458.5,249C 467.26,244.804 476.26,241.304 485.5,238.5 Z"/></g>
<g><path style="opacity:1" fill="#faf0d2" d="M 468.5,248.5 C 467.127,248.657 465.793,248.49 464.5,248C 470.125,245.403 475.792,242.903 481.5,240.5C 483.836,242.073 483.836,243.406 481.5,244.5C 481.167,243.833 480.833,243.167 480.5,242.5C 476.308,244.328 472.308,246.328 468.5,248.5 Z"/></g>
<g><path style="opacity:1" fill="#e54698" d="M 478.5,246.5 C 479.756,246.461 480.756,246.961 481.5,248C 480.635,249.359 479.635,250.526 478.5,251.5C 471.067,254.051 464.067,257.385 457.5,261.5C 453.327,262.837 449.493,264.837 446,267.5C 445.333,266.167 445.333,264.833 446,263.5C 447.812,262.023 449.645,260.69 451.5,259.5C 460.657,255.421 469.657,251.087 478.5,246.5 Z"/></g>
<g><path style="opacity:1" fill="#9b9085" d="M 427.5,264.5 C 426.167,264.5 424.833,264.5 423.5,264.5C 424.209,263.596 425.209,263.263 426.5,263.5C 426.5,262.5 426.5,261.5 426.5,260.5C 430.032,260.69 433.365,260.023 436.5,258.5C 437.738,257.588 439.072,257.421 440.5,258C 435.808,259.713 431.475,261.88 427.5,264.5 Z"/></g>
<g><path style="opacity:1" fill="#5c515d" d="M 33.5,256.5 C 35.3936,257.048 37.0603,258.048 38.5,259.5C 39.1067,259.376 39.44,259.043 39.5,258.5C 44.1518,261.821 48.4851,265.487 52.5,269.5C 51.5084,269.328 50.8417,269.662 50.5,270.5C 44.6492,266.072 38.9826,261.406 33.5,256.5 Z"/></g>
<g><path style="opacity:1" fill="#1c55b0" d="M 426.5,260.5 C 426.5,261.5 426.5,262.5 426.5,263.5C 425.209,263.263 424.209,263.596 423.5,264.5C 418.343,265.607 413.676,267.607 409.5,270.5C 399.746,274.542 390.079,278.875 380.5,283.5C 380.5,282.167 380.5,280.833 380.5,279.5C 395.134,272.851 409.801,266.184 424.5,259.5C 425.183,259.863 425.85,260.196 426.5,260.5 Z"/></g>
<g><path style="opacity:1" fill="#21152d" d="M 400.5,264.5 C 396.584,267.29 392.251,269.29 387.5,270.5C 389.746,268.966 392.08,267.299 394.5,265.5C 396.396,264.534 398.396,264.201 400.5,264.5 Z"/></g>
<g><path style="opacity:1" fill="#f3e6c7" d="M 490.5,232.5 C 491.398,233.158 492.398,233.824 493.5,234.5C 490.652,235.659 487.985,236.992 485.5,238.5C 476.26,241.304 467.26,244.804 458.5,249C 459.5,249.333 460.5,249.667 461.5,250C 459.014,250.656 457.347,252.156 456.5,254.5C 454.572,256.474 452.239,257.974 449.5,259C 450.094,259.464 450.761,259.631 451.5,259.5C 449.645,260.69 447.812,262.023 446,263.5C 445.333,264.833 445.333,266.167 446,267.5C 449.493,264.837 453.327,262.837 457.5,261.5C 458.756,261.461 459.756,261.961 460.5,263C 453.982,266.759 447.315,270.259 440.5,273.5C 441.665,274.584 442.998,275.417 444.5,276C 442.833,276.833 441.167,277.667 439.5,278.5C 438.304,278.154 438.304,277.654 439.5,277C 436.961,276.204 434.628,276.371 432.5,277.5C 418.886,284.307 405.22,291.14 391.5,298C 389.907,298.949 388.574,300.115 387.5,301.5C 386.046,302.52 385.713,303.687 386.5,305C 382.278,306.941 378.278,309.108 374.5,311.5C 356.701,319.23 339.701,328.23 323.5,338.5C 319.519,338.776 315.852,340.11 312.5,342.5C 312.167,342.333 311.833,342.167 311.5,342C 312.71,340.961 313.71,339.794 314.5,338.5C 334.755,327.539 355.422,317.373 376.5,308C 377.696,307.346 377.696,306.846 376.5,306.5C 369.072,308.695 361.738,311.862 354.5,316C 351.681,315.508 349.014,315.674 346.5,316.5C 345.833,316.5 345.167,316.5 344.5,316.5C 347.447,313.184 351.447,310.35 356.5,308C 365.073,304.714 373.406,300.881 381.5,296.5C 381.833,297.167 382.167,297.833 382.5,298.5C 384.002,297.917 385.335,297.084 386.5,296C 385.833,295.667 385.167,295.333 384.5,295C 389.887,292.646 394.887,289.812 399.5,286.5C 409.78,281.36 420.114,276.193 430.5,271C 429.5,270.333 428.5,270.333 427.5,271C 417.807,275.847 408.14,280.68 398.5,285.5C 393.401,287.548 388.401,289.882 383.5,292.5C 382.537,292.03 382.537,291.363 383.5,290.5C 398.447,283.361 413.447,276.194 428.5,269C 426.833,268.667 425.167,268.333 423.5,268C 426.417,266.472 429.417,265.139 432.5,264C 430.803,263.616 429.137,263.782 427.5,264.5C 431.475,261.88 435.808,259.713 440.5,258C 439.072,257.421 437.738,257.588 436.5,258.5C 434.678,255.962 432.678,255.962 430.5,258.5C 429.138,256.988 428.804,255.488 429.5,254C 433.602,253.117 437.435,251.617 441,249.5C 442.465,250.33 443.965,250.496 445.5,250C 447.821,246.388 451.154,244.555 455.5,244.5C 455.5,243.167 455.5,241.833 455.5,240.5C 455.5,240.167 455.5,239.833 455.5,239.5C 457.153,239.34 458.486,238.674 459.5,237.5C 461.97,237.346 463.97,236.346 465.5,234.5C 468.406,233.213 471.406,232.213 474.5,231.5C 477.483,231.102 480.483,230.768 483.5,230.5C 486.205,230.316 488.538,230.983 490.5,232.5 Z"/></g>
<g><path style="opacity:1" fill="#2f0a41" d="M 110.5,248.5 C 122.149,255.807 133.816,263.14 145.5,270.5C 150.448,274.648 155.782,278.314 161.5,281.5C 171.537,288.513 181.537,295.513 191.5,302.5C 178.999,295.084 166.665,287.417 154.5,279.5C 139.833,269.167 125.167,258.833 110.5,248.5 Z"/></g>
<g><path style="opacity:1" fill="#191321" d="M 385.5,271.5 C 382.912,273.625 379.912,274.958 376.5,275.5C 379.082,273.258 382.082,271.924 385.5,271.5 Z"/></g>
<g><path style="opacity:1" fill="#8e7f6b" d="M 399.5,286.5 C 398.833,286.5 398.5,286.167 398.5,285.5C 408.14,280.68 417.807,275.847 427.5,271C 428.5,270.333 429.5,270.333 430.5,271C 420.114,276.193 409.78,281.36 399.5,286.5 Z"/></g>
<g><path style="opacity:1" fill="#c2b39e" d="M 492.5,259.5 C 489.136,261.263 485.636,262.93 482,264.5C 481.544,265.744 482.044,266.577 483.5,267C 481.519,267.605 481.185,268.605 482.5,270C 481.484,271.677 480.484,273.343 479.5,275C 480.66,276.997 480.66,278.831 479.5,280.5C 479.737,279.209 479.404,278.209 478.5,277.5C 478.162,274.843 478.829,272.51 480.5,270.5C 480.167,270.167 479.833,269.833 479.5,269.5C 477.291,270.92 475.291,272.587 473.5,274.5C 473.167,273.833 472.833,273.167 472.5,272.5C 470.167,273.833 467.833,275.167 465.5,276.5C 464.304,276.154 464.304,275.654 465.5,275C 464.5,274.333 463.5,274.333 462.5,275C 456.171,277.248 450.337,280.415 445,284.5C 442.91,283.209 441.576,283.876 441,286.5C 440.25,285.874 439.416,285.374 438.5,285C 441.402,284.081 441.735,283.248 439.5,282.5C 444.274,280.497 448.774,277.83 453,274.5C 454.68,275.603 456.18,275.27 457.5,273.5C 457.833,274.167 458.167,274.833 458.5,275.5C 464.693,272.902 470.693,270.068 476.5,267C 474.109,266.309 474.109,265.309 476.5,264C 481.953,262.764 487.287,261.264 492.5,259.5 Z"/></g>
<g><path style="opacity:1" fill="#e4d8be" d="M 478.5,277.5 C 471.079,281.069 463.745,284.902 456.5,289C 455.207,289.49 453.873,289.657 452.5,289.5C 451.833,289.5 451.167,289.5 450.5,289.5C 449.417,289.461 448.417,289.127 447.5,288.5C 444.528,290.968 441.194,292.802 437.5,294C 436.748,294.671 436.414,295.504 436.5,296.5C 433.622,298.105 430.622,299.439 427.5,300.5C 423.107,300.543 422.774,300.043 426.5,299C 425.128,298.598 423.795,298.098 422.5,297.5C 418.546,300.484 414.213,302.317 409.5,303C 416.374,299.063 423.374,295.397 430.5,292C 430.619,290.855 430.952,289.688 431.5,288.5C 431.918,287.778 432.584,287.278 433.5,287C 432.5,286.667 431.5,286.333 430.5,286C 433.53,284.716 436.53,283.549 439.5,282.5C 441.735,283.248 441.402,284.081 438.5,285C 439.416,285.374 440.25,285.874 441,286.5C 441.576,283.876 442.91,283.209 445,284.5C 450.337,280.415 456.171,277.248 462.5,275C 463.5,274.333 464.5,274.333 465.5,275C 464.304,275.654 464.304,276.154 465.5,276.5C 467.833,275.167 470.167,273.833 472.5,272.5C 472.833,273.167 473.167,273.833 473.5,274.5C 475.291,272.587 477.291,270.92 479.5,269.5C 479.833,269.833 480.167,270.167 480.5,270.5C 478.829,272.51 478.162,274.843 478.5,277.5 Z"/></g>
<g><path style="opacity:1" fill="#1a1423" d="M 374.5,276.5 C 371.912,278.625 368.912,279.958 365.5,280.5C 367.835,277.835 370.835,276.502 374.5,276.5 Z"/></g>
<g><path style="opacity:1" fill="#d2c3a8" d="M 383.5,290.5 C 383.157,288.775 382.157,288.275 380.5,289C 373.245,292.117 366.579,295.951 360.5,300.5C 360.5,299.833 360.167,299.5 359.5,299.5C 359.369,298.624 359.702,297.957 360.5,297.5C 366.833,294.333 373.167,291.167 379.5,288C 378.167,287.333 376.833,287.333 375.5,288C 369.941,290.363 364.441,292.863 359,295.5C 356.107,295.056 354.274,294.056 353.5,292.5C 356.734,289.881 360.4,288.381 364.5,288C 362.119,289.247 362.453,289.58 365.5,289C 368.464,288.16 368.797,287.16 366.5,286C 371.073,283.546 375.739,281.379 380.5,279.5C 380.5,280.833 380.5,282.167 380.5,283.5C 380.047,284.458 379.381,285.292 378.5,286C 380.385,285.77 382.385,285.77 384.5,286C 393.833,281 403.167,276 412.5,271C 411.552,270.517 410.552,270.351 409.5,270.5C 413.676,267.607 418.343,265.607 423.5,264.5C 424.833,264.5 426.167,264.5 427.5,264.5C 429.137,263.782 430.803,263.616 432.5,264C 429.417,265.139 426.417,266.472 423.5,268C 425.167,268.333 426.833,268.667 428.5,269C 413.447,276.194 398.447,283.361 383.5,290.5 Z"/></g>
<g><path style="opacity:1" fill="#f4e7c9" d="M 409.5,270.5 C 410.552,270.351 411.552,270.517 412.5,271C 403.167,276 393.833,281 384.5,286C 382.385,285.77 380.385,285.77 378.5,286C 379.381,285.292 380.047,284.458 380.5,283.5C 390.079,278.875 399.746,274.542 409.5,270.5 Z"/></g>
<g><path style="opacity:1" fill="#f6ebd4" d="M 455.5,240.5 C 455.5,241.833 455.5,243.167 455.5,244.5C 451.154,244.555 447.821,246.388 445.5,250C 443.965,250.496 442.465,250.33 441,249.5C 437.435,251.617 433.602,253.117 429.5,254C 428.804,255.488 429.138,256.988 430.5,258.5C 432.678,255.962 434.678,255.962 436.5,258.5C 433.365,260.023 430.032,260.69 426.5,260.5C 425.85,260.196 425.183,259.863 424.5,259.5C 409.801,266.184 395.134,272.851 380.5,279.5C 375.739,281.379 371.073,283.546 366.5,286C 368.797,287.16 368.464,288.16 365.5,289C 362.453,289.58 362.119,289.247 364.5,288C 360.4,288.381 356.734,289.881 353.5,292.5C 344.536,295.984 335.869,299.984 327.5,304.5C 318.54,307.06 309.707,310.06 301,313.5C 300.5,313.333 300,313.167 299.5,313C 305.339,310.916 310.673,308.083 315.5,304.5C 320.5,301.833 325.5,299.167 330.5,296.5C 331.492,296.672 332.158,296.338 332.5,295.5C 334.703,295.396 336.703,294.73 338.5,293.5C 340.368,292.737 342.035,291.737 343.5,290.5C 345.703,290.396 347.703,289.73 349.5,288.5C 351.368,287.737 353.035,286.737 354.5,285.5C 356.703,285.396 358.703,284.73 360.5,283.5C 362.368,282.737 364.035,281.737 365.5,280.5C 368.912,279.958 371.912,278.625 374.5,276.5C 375.492,276.672 376.158,276.338 376.5,275.5C 379.912,274.958 382.912,273.625 385.5,271.5C 386.492,271.672 387.158,271.338 387.5,270.5C 392.251,269.29 396.584,267.29 400.5,264.5C 407.245,261.457 413.912,258.457 420.5,255.5C 424.582,254.624 428.249,252.957 431.5,250.5C 432.492,250.672 433.158,250.338 433.5,249.5C 436.912,248.958 439.912,247.625 442.5,245.5C 443.492,245.672 444.158,245.338 444.5,244.5C 448.264,243.452 451.931,242.119 455.5,240.5 Z"/></g>
<g><path style="opacity:1" fill="#171119" d="M 50.5,270.5 C 50.8417,269.662 51.5084,269.328 52.5,269.5C 70.4323,282.435 87.7656,296.102 104.5,310.5C 101.222,308.523 97.8888,306.523 94.5,304.5C 80.1645,292.674 65.4978,281.341 50.5,270.5 Z"/></g>
<g><path style="opacity:1" fill="#2e113c" d="M 145.5,280.5 C 147.167,281.167 148.833,281.833 150.5,282.5C 157.989,287.804 165.656,292.97 173.5,298C 171.402,297.968 169.402,297.301 167.5,296C 161.308,291.646 154.975,287.479 148.5,283.5C 147.832,286.306 147.166,288.972 146.5,291.5C 146.756,287.731 146.423,284.064 145.5,280.5 Z"/></g>
<g><path style="opacity:1" fill="#161219" d="M 360.5,283.5 C 358.703,284.73 356.703,285.396 354.5,285.5C 356.316,283.559 358.316,282.892 360.5,283.5 Z"/></g>
<g><path style="opacity:1" fill="#470e67" d="M 154.5,279.5 C 166.665,287.417 178.999,295.084 191.5,302.5C 196.957,307.067 202.623,311.4 208.5,315.5C 206.659,316.23 204.825,316.897 203,317.5C 197.725,313.623 192.225,310.456 186.5,308C 196.167,314.5 205.833,321 215.5,327.5C 215.833,327.333 216.167,327.167 216.5,327C 214.597,325.553 212.93,323.886 211.5,322C 212.399,320.764 213.566,319.93 215,319.5C 220.036,321.487 223.703,324.821 226,329.5C 226.308,328.692 226.808,328.025 227.5,327.5C 229.243,329.038 231.243,330.038 233.5,330.5C 235.656,332.841 238.156,334.841 241,336.5C 241.49,337.793 241.657,339.127 241.5,340.5C 240.778,340.918 240.278,341.584 240,342.5C 235.231,338.381 230.065,335.214 224.5,333C 229.513,336.361 234.18,340.027 238.5,344C 235.811,353.683 234.145,363.517 233.5,373.5C 233.5,375.5 233.5,377.5 233.5,379.5C 233.736,382.609 233.403,385.609 232.5,388.5C 231.613,394.383 231.947,400.383 233.5,406.5C 234.953,408.185 236.286,409.851 237.5,411.5C 234.43,411.632 231.43,411.299 228.5,410.5C 198.197,385.795 168.197,361.462 138.5,337.5C 138.833,336.833 139.167,336.167 139.5,335.5C 141.727,330.082 142.06,324.415 140.5,318.5C 138.578,316.997 137.412,314.997 137,312.5C 136.174,307.411 136.508,302.411 138,297.5C 138.333,297.833 138.667,298.167 139,298.5C 140.401,296.808 142.234,296.141 144.5,296.5C 144.392,294.486 145.058,292.82 146.5,291.5C 147.166,288.972 147.832,286.306 148.5,283.5C 154.975,287.479 161.308,291.646 167.5,296C 169.402,297.301 171.402,297.968 173.5,298C 165.656,292.97 157.989,287.804 150.5,282.5C 151.436,281.026 152.77,280.026 154.5,279.5 Z"/></g>
<g><path style="opacity:1" fill="#2d0a3f" d="M 173.5,282.5 C 180.197,285.511 186.197,289.511 191.5,294.5C 185.148,290.993 179.148,286.993 173.5,282.5 Z"/></g>
<g><path style="opacity:1" fill="#17121a" d="M 349.5,288.5 C 347.703,289.73 345.703,290.396 343.5,290.5C 345.316,288.559 347.316,287.892 349.5,288.5 Z"/></g>
<g><path style="opacity:1" fill="#d1c3aa" d="M 478.5,251.5 C 480.483,251.157 481.817,251.824 482.5,253.5C 483.152,254.725 484.319,255.392 486,255.5C 489.5,256 493,256.5 496.5,257C 495.529,258.481 494.196,259.315 492.5,259.5C 492.611,258.883 492.944,258.383 493.5,258C 489.828,256.715 486.161,256.548 482.5,257.5C 455.813,271.844 428.813,285.677 401.5,299C 402.5,299.333 403.5,299.667 404.5,300C 394.953,304.275 385.62,308.775 376.5,313.5C 375.5,313.5 374.5,313.5 373.5,313.5C 373.833,312.833 374.167,312.167 374.5,311.5C 378.278,309.108 382.278,306.941 386.5,305C 385.713,303.687 386.046,302.52 387.5,301.5C 387.369,302.239 387.536,302.906 388,303.5C 403.162,294.496 418.662,286.163 434.5,278.5C 434.043,277.702 433.376,277.369 432.5,277.5C 434.628,276.371 436.961,276.204 439.5,277C 438.304,277.654 438.304,278.154 439.5,278.5C 441.167,277.667 442.833,276.833 444.5,276C 442.998,275.417 441.665,274.584 440.5,273.5C 447.315,270.259 453.982,266.759 460.5,263C 459.756,261.961 458.756,261.461 457.5,261.5C 464.067,257.385 471.067,254.051 478.5,251.5 Z"/></g>
<g><path style="opacity:1" fill="#c8b9a1" d="M 398.5,285.5 C 398.5,286.167 398.833,286.5 399.5,286.5C 394.887,289.812 389.887,292.646 384.5,295C 385.167,295.333 385.833,295.667 386.5,296C 385.335,297.084 384.002,297.917 382.5,298.5C 382.167,297.833 381.833,297.167 381.5,296.5C 373.406,300.881 365.073,304.714 356.5,308C 351.447,310.35 347.447,313.184 344.5,316.5C 333.863,322.148 322.863,327.315 311.5,332C 309.246,333.377 307.08,334.877 305,336.5C 304.472,337.816 304.972,338.483 306.5,338.5C 305.152,339.601 303.652,340.601 302,341.5C 302.619,339.398 303.453,337.231 304.5,335C 304.07,334.08 303.736,333.247 303.5,332.5C 299.787,333.774 296.287,335.44 293,337.5C 290.205,336.815 287.372,336.315 284.5,336C 287.429,335.223 290.263,335.39 293,336.5C 296.663,334.154 299.83,332.154 302.5,330.5C 303.5,329.833 304.5,329.167 305.5,328.5C 317.265,322.284 329.265,316.617 341.5,311.5C 341.56,312.043 341.893,312.376 342.5,312.5C 353.531,306.984 364.531,301.484 375.5,296C 375.833,295 376.167,294 376.5,293C 378.854,292.153 381.188,291.32 383.5,290.5C 382.537,291.363 382.537,292.03 383.5,292.5C 388.401,289.882 393.401,287.548 398.5,285.5 Z"/></g>
<g><path style="opacity:1" fill="#ad937e" d="M 450.5,289.5 C 446.12,292.357 441.453,294.69 436.5,296.5C 436.414,295.504 436.748,294.671 437.5,294C 441.194,292.802 444.528,290.968 447.5,288.5C 448.417,289.127 449.417,289.461 450.5,289.5 Z"/></g>
<g><path style="opacity:1" fill="#1e1924" d="M 338.5,293.5 C 336.703,294.73 334.703,295.396 332.5,295.5C 333.736,293.957 335.402,292.957 337.5,292.5C 338.107,292.624 338.44,292.957 338.5,293.5 Z"/></g>
<g><path style="opacity:1" fill="#dd9703" d="M 432.5,277.5 C 433.376,277.369 434.043,277.702 434.5,278.5C 418.662,286.163 403.162,294.496 388,303.5C 387.536,302.906 387.369,302.239 387.5,301.5C 388.574,300.115 389.907,298.949 391.5,298C 405.22,291.14 418.886,284.307 432.5,277.5 Z"/></g>
<g><path style="opacity:1" fill="#f8eed4" d="M 492.5,259.5 C 487.287,261.264 481.953,262.764 476.5,264C 474.109,265.309 474.109,266.309 476.5,267C 470.693,270.068 464.693,272.902 458.5,275.5C 458.167,274.833 457.833,274.167 457.5,273.5C 456.18,275.27 454.68,275.603 453,274.5C 448.774,277.83 444.274,280.497 439.5,282.5C 436.53,283.549 433.53,284.716 430.5,286C 431.5,286.333 432.5,286.667 433.5,287C 432.584,287.278 431.918,287.778 431.5,288.5C 427.157,290.088 422.99,292.088 419,294.5C 418.439,293.978 417.772,293.645 417,293.5C 413.558,295.138 410.058,296.638 406.5,298C 407.5,298.333 408.5,298.667 409.5,299C 406.339,300.413 403.339,302.08 400.5,304C 402.937,303.797 405.271,302.963 407.5,301.5C 408.696,301.846 408.696,302.346 407.5,303C 400.249,305.779 393.916,309.779 388.5,315C 384.833,316.833 381.167,318.667 377.5,320.5C 376.537,320.03 376.537,319.363 377.5,318.5C 380.408,317.841 380.742,317.007 378.5,316C 381.131,314.673 383.798,313.34 386.5,312C 383.168,312.161 379.835,312.661 376.5,313.5C 385.62,308.775 394.953,304.275 404.5,300C 403.5,299.667 402.5,299.333 401.5,299C 428.813,285.677 455.813,271.844 482.5,257.5C 486.161,256.548 489.828,256.715 493.5,258C 492.944,258.383 492.611,258.883 492.5,259.5 Z"/></g>
<g><path style="opacity:1" fill="#2f183f" d="M 478.5,277.5 C 479.404,278.209 479.737,279.209 479.5,280.5C 461.182,289.658 443.182,299.325 425.5,309.5C 426.562,308.425 426.562,307.425 425.5,306.5C 424.264,307.246 422.93,307.579 421.5,307.5C 420.833,307.5 420.5,307.167 420.5,306.5C 431.87,301.819 442.537,296.153 452.5,289.5C 453.873,289.657 455.207,289.49 456.5,289C 463.745,284.902 471.079,281.069 478.5,277.5 Z"/></g>
<g><path style="opacity:1" fill="#f2e6c7" d="M 383.5,290.5 C 381.188,291.32 378.854,292.153 376.5,293C 376.167,294 375.833,295 375.5,296C 364.531,301.484 353.531,306.984 342.5,312.5C 341.893,312.376 341.56,312.043 341.5,311.5C 346.967,307.929 352.633,304.596 358.5,301.5C 359.167,301.167 359.833,300.833 360.5,300.5C 366.579,295.951 373.245,292.117 380.5,289C 382.157,288.275 383.157,288.775 383.5,290.5 Z"/></g>
<g><path style="opacity:1" fill="#302725" d="M 356.5,300.5 C 357.209,299.596 358.209,299.263 359.5,299.5C 360.167,299.5 360.5,299.833 360.5,300.5C 359.833,300.833 359.167,301.167 358.5,301.5C 358.158,300.662 357.492,300.328 356.5,300.5 Z"/></g>
<g><path style="opacity:1" fill="#eee3ca" d="M 359.5,299.5 C 358.209,299.263 357.209,299.596 356.5,300.5C 346.048,304.892 335.715,309.559 325.5,314.5C 324.761,314.631 324.094,314.464 323.5,314C 332.833,309 342.167,304 351.5,299C 350.5,298.667 349.5,298.333 348.5,298C 349.833,297.333 351.167,296.667 352.5,296C 351.5,295.667 350.5,295.333 349.5,295C 351.066,294.392 352.4,293.558 353.5,292.5C 354.274,294.056 356.107,295.056 359,295.5C 364.441,292.863 369.941,290.363 375.5,288C 376.833,287.333 378.167,287.333 379.5,288C 373.167,291.167 366.833,294.333 360.5,297.5C 359.702,297.957 359.369,298.624 359.5,299.5 Z"/></g>
<g><path style="opacity:1" fill="#2b1837" d="M 330.5,296.5 C 325.5,299.167 320.5,301.833 315.5,304.5C 313.883,305.038 312.216,305.371 310.5,305.5C 313.184,303.423 315.851,301.256 318.5,299C 322.594,298.443 326.594,297.61 330.5,296.5 Z"/></g>
<g><path style="opacity:1" fill="#c21116" d="M 450.5,289.5 C 451.167,289.5 451.833,289.5 452.5,289.5C 442.537,296.153 431.87,301.819 420.5,306.5C 416.561,309.302 412.228,311.302 407.5,312.5C 407.414,311.504 407.748,310.671 408.5,310C 415.204,307.315 421.538,304.148 427.5,300.5C 430.622,299.439 433.622,298.105 436.5,296.5C 441.453,294.69 446.12,292.357 450.5,289.5 Z"/></g>
<g><path style="opacity:1" fill="#2b093c" d="M 191.5,294.5 C 202.9,301.378 214.234,308.544 225.5,316C 226.71,317.039 227.71,318.206 228.5,319.5C 215.64,311.907 203.307,303.573 191.5,294.5 Z"/></g>
<g><path style="opacity:1" fill="#ccbea4" d="M 353.5,292.5 C 352.4,293.558 351.066,294.392 349.5,295C 350.5,295.333 351.5,295.667 352.5,296C 351.167,296.667 349.833,297.333 348.5,298C 349.5,298.333 350.5,298.667 351.5,299C 342.167,304 332.833,309 323.5,314C 324.094,314.464 324.761,314.631 325.5,314.5C 318.135,318.514 310.802,322.514 303.5,326.5C 302.833,327.167 302.167,327.833 301.5,328.5C 301.585,327.005 300.919,326.005 299.5,325.5C 293.295,326.457 287.295,328.457 281.5,331.5C 281.263,330.209 281.596,329.209 282.5,328.5C 282.56,329.043 282.893,329.376 283.5,329.5C 301.551,321.975 318.885,313.141 335.5,303C 332.826,303.153 330.16,303.653 327.5,304.5C 335.869,299.984 344.536,295.984 353.5,292.5 Z"/></g>
<g><path style="opacity:1" fill="#5c1e21" d="M 420.5,306.5 C 420.5,307.167 420.833,307.5 421.5,307.5C 416.511,311.493 410.844,314.16 404.5,315.5C 405.694,314.728 406.694,313.728 407.5,312.5C 412.228,311.302 416.561,309.302 420.5,306.5 Z"/></g>
<g><path style="opacity:1" fill="#1d1823" d="M 306.5,307.5 C 304.574,309.293 302.241,310.293 299.5,310.5C 301.32,308.552 303.654,307.552 306.5,307.5 Z"/></g>
<g><path style="opacity:1" fill="#d7cbb2" d="M 431.5,288.5 C 430.952,289.688 430.619,290.855 430.5,292C 423.374,295.397 416.374,299.063 409.5,303C 414.213,302.317 418.546,300.484 422.5,297.5C 423.795,298.098 425.128,298.598 426.5,299C 422.774,300.043 423.107,300.543 427.5,300.5C 421.538,304.148 415.204,307.315 408.5,310C 407.748,310.671 407.414,311.504 407.5,312.5C 406.694,313.728 405.694,314.728 404.5,315.5C 392.151,321.008 380.151,327.008 368.5,333.5C 358.18,337.993 348.18,342.993 338.5,348.5C 336.326,348.92 334.326,348.92 332.5,348.5C 329.935,350.894 327.101,351.894 324,351.5C 323.316,352.784 323.483,353.951 324.5,355C 322.416,355.697 320.749,356.864 319.5,358.5C 318.5,358.5 317.5,358.5 316.5,358.5C 315.244,358.539 314.244,358.039 313.5,357C 316.339,355.08 319.339,353.413 322.5,352C 317.699,352.808 313.199,354.641 309,357.5C 307.278,357.038 305.445,356.872 303.5,357C 320.007,350.413 336.007,342.747 351.5,334C 349.803,333.616 348.137,333.782 346.5,334.5C 356.402,329.212 366.402,323.879 376.5,318.5C 376.833,318.5 377.167,318.5 377.5,318.5C 376.537,319.363 376.537,320.03 377.5,320.5C 381.167,318.667 384.833,316.833 388.5,315C 393.916,309.779 400.249,305.779 407.5,303C 408.696,302.346 408.696,301.846 407.5,301.5C 405.271,302.963 402.937,303.797 400.5,304C 403.339,302.08 406.339,300.413 409.5,299C 408.5,298.667 407.5,298.333 406.5,298C 410.058,296.638 413.558,295.138 417,293.5C 417.772,293.645 418.439,293.978 419,294.5C 422.99,292.088 427.157,290.088 431.5,288.5 Z"/></g>
<g><path style="opacity:1" fill="#201327" d="M 104.5,310.5 C 106.404,310.738 107.738,311.738 108.5,313.5C 106.596,313.262 105.262,312.262 104.5,310.5 Z"/></g>
<g><path style="opacity:1" fill="#460f66" d="M 173.5,282.5 C 179.148,286.993 185.148,290.993 191.5,294.5C 203.307,303.573 215.64,311.907 228.5,319.5C 233.373,323.858 238.706,327.691 244.5,331C 243.652,332.188 243.652,333.688 244.5,335.5C 240.725,334.113 237.059,332.447 233.5,330.5C 219.852,320.673 205.852,311.34 191.5,302.5C 181.537,295.513 171.537,288.513 161.5,281.5C 161.351,280.448 161.517,279.448 162,278.5C 163.779,281.276 164.779,280.943 165,277.5C 167.642,279.568 170.475,281.235 173.5,282.5 Z"/></g>
<g><path style="opacity:1" fill="#291a31" d="M 297.5,311.5 C 295.574,313.293 293.241,314.293 290.5,314.5C 292.036,311.908 294.369,310.908 297.5,311.5 Z"/></g>
<g><path style="opacity:1" fill="#dcd2c2" d="M 315.5,304.5 C 310.673,308.083 305.339,310.916 299.5,313C 300,313.167 300.5,313.333 301,313.5C 309.707,310.06 318.54,307.06 327.5,304.5C 318.197,309.486 308.863,314.486 299.5,319.5C 299.446,318.313 299.113,316.98 298.5,315.5C 295.297,317.577 291.964,317.91 288.5,316.5C 289.167,315.833 289.833,315.167 290.5,314.5C 293.241,314.293 295.574,313.293 297.5,311.5C 298.492,311.672 299.158,311.338 299.5,310.5C 302.241,310.293 304.574,309.293 306.5,307.5C 308.153,307.34 309.486,306.674 310.5,305.5C 312.216,305.371 313.883,305.038 315.5,304.5 Z"/></g>
<g><path style="opacity:1" fill="#ac9b82" d="M 377.5,318.5 C 377.167,318.5 376.833,318.5 376.5,318.5C 377.85,317.35 377.684,316.683 376,316.5C 372.848,318.267 369.681,319.934 366.5,321.5C 365.328,320.295 363.995,320.295 362.5,321.5C 361.304,321.154 361.304,320.654 362.5,320C 367.192,317.722 371.859,315.555 376.5,313.5C 379.835,312.661 383.168,312.161 386.5,312C 383.798,313.34 381.131,314.673 378.5,316C 380.742,317.007 380.408,317.841 377.5,318.5 Z"/></g>
<g><path style="opacity:1" fill="#c80f11" d="M 356.5,300.5 C 357.492,300.328 358.158,300.662 358.5,301.5C 352.633,304.596 346.967,307.929 341.5,311.5C 329.265,316.617 317.265,322.284 305.5,328.5C 304.167,328.5 303.5,327.833 303.5,326.5C 310.802,322.514 318.135,318.514 325.5,314.5C 335.715,309.559 346.048,304.892 356.5,300.5 Z"/></g>
<g><path style="opacity:1" fill="#370c4e" d="M 191.5,302.5 C 205.852,311.34 219.852,320.673 233.5,330.5C 231.243,330.038 229.243,329.038 227.5,327.5C 226.808,328.025 226.308,328.692 226,329.5C 223.703,324.821 220.036,321.487 215,319.5C 213.566,319.93 212.399,320.764 211.5,322C 212.93,323.886 214.597,325.553 216.5,327C 216.167,327.167 215.833,327.333 215.5,327.5C 205.833,321 196.167,314.5 186.5,308C 192.225,310.456 197.725,313.623 203,317.5C 204.825,316.897 206.659,316.23 208.5,315.5C 202.623,311.4 196.957,307.067 191.5,302.5 Z"/></g>
<g><path style="opacity:1" fill="#261732" d="M 286.5,316.5 C 283.26,318.951 279.593,320.618 275.5,321.5C 275.953,320.542 276.619,319.708 277.5,319C 280.353,317.57 283.353,316.737 286.5,316.5 Z"/></g>
<g><path style="opacity:1" fill="#58505a" d="M 114.5,318.5 C 116.749,319.08 118.415,320.413 119.5,322.5C 117.251,321.92 115.585,320.587 114.5,318.5 Z"/></g>
<g><path style="opacity:1" fill="#1f1b24" d="M 275.5,321.5 C 274.22,322.931 272.553,323.598 270.5,323.5C 271.78,322.069 273.447,321.402 275.5,321.5 Z"/></g>
<g><path style="opacity:1" fill="#311043" d="M 228.5,319.5 C 234.446,322.477 240.112,325.977 245.5,330C 247.025,331.009 248.692,331.509 250.5,331.5C 250.281,330.325 250.614,329.325 251.5,328.5C 253.409,329.348 255.409,329.682 257.5,329.5C 254.914,330.946 252.58,332.613 250.5,334.5C 248.402,333.516 246.402,333.849 244.5,335.5C 243.652,333.688 243.652,332.188 244.5,331C 238.706,327.691 233.373,323.858 228.5,319.5 Z"/></g>
<g><path style="opacity:1" fill="#4f4652" d="M 119.5,322.5 C 121.749,323.08 123.415,324.413 124.5,326.5C 122.251,325.92 120.585,324.587 119.5,322.5 Z"/></g>
<g><path style="opacity:1" fill="#f4e7cb" d="M 282.5,328.5 C 282.5,326.5 282.5,324.5 282.5,322.5C 276.829,324.514 272.496,328.18 269.5,333.5C 267.5,334.833 265.833,336.5 264.5,338.5C 263.167,338.167 261.833,337.833 260.5,337.5C 259.645,334.703 257.979,334.036 255.5,335.5C 254.614,336.325 254.281,337.325 254.5,338.5C 252.806,337.473 251.473,336.139 250.5,334.5C 252.58,332.613 254.914,330.946 257.5,329.5C 261.98,327.759 266.314,325.759 270.5,323.5C 272.553,323.598 274.22,322.931 275.5,321.5C 279.593,320.618 283.26,318.951 286.5,316.5C 287.167,316.5 287.833,316.5 288.5,316.5C 291.964,317.91 295.297,317.577 298.5,315.5C 299.113,316.98 299.446,318.313 299.5,319.5C 308.863,314.486 318.197,309.486 327.5,304.5C 330.16,303.653 332.826,303.153 335.5,303C 318.885,313.141 301.551,321.975 283.5,329.5C 282.893,329.376 282.56,329.043 282.5,328.5 Z"/></g>
<g><path style="opacity:1" fill="#d72731" d="M 282.5,328.5 C 281.596,329.209 281.263,330.209 281.5,331.5C 280.659,333.379 280.325,335.379 280.5,337.5C 278.87,340.53 277.87,343.863 277.5,347.5C 278.108,348.8 278.775,350.133 279.5,351.5C 279.392,352.442 279.059,353.275 278.5,354C 283.867,354.869 286.534,358.035 286.5,363.5C 284.708,363.634 283.042,363.301 281.5,362.5C 281.217,361.711 280.717,361.044 280,360.5C 277.873,362.114 276.373,364.114 275.5,366.5C 273.952,366.821 273.285,367.821 273.5,369.5C 272.662,369.842 272.328,370.508 272.5,371.5C 270.804,373.129 269.804,372.796 269.5,370.5C 269.5,370.167 269.5,369.833 269.5,369.5C 271.113,366.714 272.946,364.047 275,361.5C 276.187,359.956 276.52,358.289 276,356.5C 269.253,349.912 262.086,343.912 254.5,338.5C 254.281,337.325 254.614,336.325 255.5,335.5C 257.979,334.036 259.645,334.703 260.5,337.5C 261.538,339.519 262.872,339.853 264.5,338.5C 267.167,337.833 268.833,336.167 269.5,333.5C 272.496,328.18 276.829,324.514 282.5,322.5C 282.5,324.5 282.5,326.5 282.5,328.5 Z"/></g>
<g><path style="opacity:1" fill="#4b444b" d="M 124.5,326.5 C 126.749,327.08 128.415,328.413 129.5,330.5C 127.251,329.92 125.585,328.587 124.5,326.5 Z"/></g>
<g><path style="opacity:1" fill="#d1c2a8" d="M 314.5,338.5 C 315.574,337.115 316.907,335.949 318.5,335C 317.552,334.517 316.552,334.351 315.5,334.5C 325.095,329.013 335.095,324.18 345.5,320C 346.833,319 348.167,318 349.5,317C 348.552,316.517 347.552,316.351 346.5,316.5C 349.014,315.674 351.681,315.508 354.5,316C 361.738,311.862 369.072,308.695 376.5,306.5C 377.696,306.846 377.696,307.346 376.5,308C 355.422,317.373 334.755,327.539 314.5,338.5 Z"/></g>
<g><path style="opacity:1" fill="#e44297" d="M 344.5,316.5 C 345.167,316.5 345.833,316.5 346.5,316.5C 347.552,316.351 348.552,316.517 349.5,317C 348.167,318 346.833,319 345.5,320C 335.095,324.18 325.095,329.013 315.5,334.5C 311.898,334.692 308.898,336.026 306.5,338.5C 304.972,338.483 304.472,337.816 305,336.5C 307.08,334.877 309.246,333.377 311.5,332C 322.863,327.315 333.863,322.148 344.5,316.5 Z"/></g>
<g><path style="opacity:1" fill="#3b353b" d="M 129.5,330.5 C 131.404,330.738 132.738,331.738 133.5,333.5C 131.596,333.262 130.262,332.262 129.5,330.5 Z"/></g>
<g><path style="opacity:1" fill="#b5a791" d="M 374.5,311.5 C 374.167,312.167 373.833,312.833 373.5,313.5C 366.067,316.716 358.734,320.216 351.5,324C 352.167,324.333 352.833,324.667 353.5,325C 343.589,329.799 333.589,334.299 323.5,338.5C 339.701,328.23 356.701,319.23 374.5,311.5 Z"/></g>
<g><path style="opacity:1" fill="#260e32" d="M 233.5,330.5 C 237.059,332.447 240.725,334.113 244.5,335.5C 243.737,337.368 242.737,339.035 241.5,340.5C 241.657,339.127 241.49,337.793 241,336.5C 238.156,334.841 235.656,332.841 233.5,330.5 Z"/></g>
<g><path style="opacity:1" fill="#087907" d="M 376.5,318.5 C 366.402,323.879 356.402,329.212 346.5,334.5C 340.919,336.871 335.752,339.871 331,343.5C 330.835,341.322 331.668,339.489 333.5,338C 344.553,332.473 355.553,326.973 366.5,321.5C 369.681,319.934 372.848,318.267 376,316.5C 377.684,316.683 377.85,317.35 376.5,318.5 Z"/></g>
<g><path style="opacity:1" fill="#1c191b" d="M 133.5,333.5 C 135.315,334.63 137.315,335.296 139.5,335.5C 139.167,336.167 138.833,336.833 138.5,337.5C 136.246,336.876 134.579,335.543 133.5,333.5 Z"/></g>
<g><path style="opacity:1" fill="#691f2e" d="M 269.5,333.5 C 268.833,336.167 267.167,337.833 264.5,338.5C 265.833,336.5 267.5,334.833 269.5,333.5 Z"/></g>
<g><path style="opacity:1" fill="#f2e6ca" d="M 373.5,313.5 C 374.5,313.5 375.5,313.5 376.5,313.5C 371.859,315.555 367.192,317.722 362.5,320C 361.304,320.654 361.304,321.154 362.5,321.5C 363.995,320.295 365.328,320.295 366.5,321.5C 355.553,326.973 344.553,332.473 333.5,338C 331.668,339.489 330.835,341.322 331,343.5C 335.752,339.871 340.919,336.871 346.5,334.5C 348.137,333.782 349.803,333.616 351.5,334C 336.007,342.747 320.007,350.413 303.5,357C 305.445,356.872 307.278,357.038 309,357.5C 313.199,354.641 317.699,352.808 322.5,352C 319.339,353.413 316.339,355.08 313.5,357C 314.244,358.039 315.244,358.539 316.5,358.5C 309.484,362.675 302.151,366.341 294.5,369.5C 290.31,370.739 287.31,369.239 285.5,365C 283.899,364.727 282.399,364.227 281,363.5C 280.184,364.823 279.017,365.489 277.5,365.5C 278.262,363.738 279.596,362.738 281.5,362.5C 283.042,363.301 284.708,363.634 286.5,363.5C 286.534,358.035 283.867,354.869 278.5,354C 279.059,353.275 279.392,352.442 279.5,351.5C 278.775,350.133 278.108,348.8 277.5,347.5C 279.413,344.665 280.413,341.332 280.5,337.5C 280.325,335.379 280.659,333.379 281.5,331.5C 287.295,328.457 293.295,326.457 299.5,325.5C 300.919,326.005 301.585,327.005 301.5,328.5C 299.969,329.925 300.302,330.591 302.5,330.5C 299.83,332.154 296.663,334.154 293,336.5C 290.263,335.39 287.429,335.223 284.5,336C 287.372,336.315 290.205,336.815 293,337.5C 296.287,335.44 299.787,333.774 303.5,332.5C 303.736,333.247 304.07,334.08 304.5,335C 303.453,337.231 302.619,339.398 302,341.5C 303.652,340.601 305.152,339.601 306.5,338.5C 308.898,336.026 311.898,334.692 315.5,334.5C 316.552,334.351 317.552,334.517 318.5,335C 316.907,335.949 315.574,337.115 314.5,338.5C 306.693,341.046 299.026,343.879 291.5,347C 294.833,347.333 298.167,347.667 301.5,348C 299.122,348.974 299.456,349.641 302.5,350C 301.328,350.419 300.328,351.085 299.5,352C 299.833,352.167 300.167,352.333 300.5,352.5C 307.373,348.466 314.373,344.633 321.5,341C 322.381,340.292 323.047,339.458 323.5,338.5C 333.589,334.299 343.589,329.799 353.5,325C 352.833,324.667 352.167,324.333 351.5,324C 358.734,320.216 366.067,316.716 373.5,313.5 Z"/></g>
<g><path style="opacity:1" fill="#981d1a" d="M 303.5,326.5 C 303.5,327.833 304.167,328.5 305.5,328.5C 304.5,329.167 303.5,329.833 302.5,330.5C 300.302,330.591 299.969,329.925 301.5,328.5C 302.167,327.833 302.833,327.167 303.5,326.5 Z"/></g>
<g><path style="opacity:1" fill="#673531" d="M 260.5,337.5 C 261.833,337.833 263.167,338.167 264.5,338.5C 262.872,339.853 261.538,339.519 260.5,337.5 Z"/></g>
<g><path style="opacity:1" fill="#e07577" d="M 280.5,337.5 C 280.413,341.332 279.413,344.665 277.5,347.5C 277.87,343.863 278.87,340.53 280.5,337.5 Z"/></g>
<g><path style="opacity:1" fill="#e9d9f2" d="M 250.5,334.5 C 251.473,336.139 252.806,337.473 254.5,338.5C 262.086,343.912 269.253,349.912 276,356.5C 276.52,358.289 276.187,359.956 275,361.5C 272.946,364.047 271.113,366.714 269.5,369.5C 266.518,367.526 263.518,365.526 260.5,363.5C 257.936,359.883 254.603,357.216 250.5,355.5C 247.725,352.395 244.392,350.062 240.5,348.5C 240.833,345.833 241.167,343.167 241.5,340.5C 242.737,339.035 243.737,337.368 244.5,335.5C 246.402,333.849 248.402,333.516 250.5,334.5 Z"/></g>
<g><path style="opacity:1" fill="#0f0d0e" d="M 246.5,338.5 C 251.766,338.541 253.599,341.208 252,346.5C 247.822,349.331 245.322,348.164 244.5,343C 244.519,341.167 245.185,339.667 246.5,338.5 Z"/></g>
<g><path style="opacity:1" fill="#2f123e" d="M 241.5,340.5 C 241.167,343.167 240.833,345.833 240.5,348.5C 239.069,349.903 237.902,351.569 237,353.5C 236.925,357.733 236.092,361.733 234.5,365.5C 235.218,368.258 234.885,370.925 233.5,373.5C 234.145,363.517 235.811,353.683 238.5,344C 234.18,340.027 229.513,336.361 224.5,333C 230.065,335.214 235.231,338.381 240,342.5C 240.278,341.584 240.778,340.918 241.5,340.5 Z"/></g>
<g><path style="opacity:1" fill="#cdc0a7" d="M 314.5,338.5 C 313.71,339.794 312.71,340.961 311.5,342C 311.833,342.167 312.167,342.333 312.5,342.5C 315.852,340.11 319.519,338.776 323.5,338.5C 323.047,339.458 322.381,340.292 321.5,341C 314.373,344.633 307.373,348.466 300.5,352.5C 300.167,352.333 299.833,352.167 299.5,352C 300.328,351.085 301.328,350.419 302.5,350C 299.456,349.641 299.122,348.974 301.5,348C 298.167,347.667 294.833,347.333 291.5,347C 299.026,343.879 306.693,341.046 314.5,338.5 Z"/></g>
<g><path style="opacity:1" fill="#a29292" d="M 338.5,348.5 C 332.68,352.579 326.347,355.912 319.5,358.5C 320.749,356.864 322.416,355.697 324.5,355C 323.483,353.951 323.316,352.784 324,351.5C 327.101,351.894 329.935,350.894 332.5,348.5C 334.326,348.92 336.326,348.92 338.5,348.5 Z"/></g>
<g><path style="opacity:1" fill="#89778e" d="M 245.5,353.5 C 247.167,354.167 248.833,354.833 250.5,355.5C 250.782,356.778 251.449,357.778 252.5,358.5C 252.278,360.607 251.278,362.274 249.5,363.5C 250.188,368.208 249.688,373.208 248,378.5C 245.247,383.008 242.247,387.341 239,391.5C 237.605,390.185 236.605,390.519 236,392.5C 233.861,387.601 233.027,388.268 233.5,394.5C 232.539,392.735 232.205,390.735 232.5,388.5C 233.403,385.609 233.736,382.609 233.5,379.5C 233.833,379.5 234.167,379.5 234.5,379.5C 236.872,382.948 239.372,382.614 242,378.5C 244.11,372.609 245.276,366.776 245.5,361C 246.167,360 246.833,359 247.5,358C 245.963,356.89 245.297,355.39 245.5,353.5 Z"/></g>
<g><path style="opacity:1" fill="#4b3a51" d="M 250.5,355.5 C 254.603,357.216 257.936,359.883 260.5,363.5C 257.851,361.86 255.184,360.193 252.5,358.5C 251.449,357.778 250.782,356.778 250.5,355.5 Z"/></g>
<g><path style="opacity:1" fill="#594b5b" d="M 240.5,348.5 C 244.392,350.062 247.725,352.395 250.5,355.5C 248.833,354.833 247.167,354.167 245.5,353.5C 243.855,354.479 242.521,355.812 241.5,357.5C 240.554,360.976 240.554,364.309 241.5,367.5C 240.658,370.877 239.158,373.877 237,376.5C 236.667,375.5 236.333,374.5 236,373.5C 235.187,375.436 234.687,377.436 234.5,379.5C 234.167,379.5 233.833,379.5 233.5,379.5C 233.5,377.5 233.5,375.5 233.5,373.5C 234.885,370.925 235.218,368.258 234.5,365.5C 236.092,361.733 236.925,357.733 237,353.5C 237.902,351.569 239.069,349.903 240.5,348.5 Z"/></g>
<g><path style="opacity:1" fill="#e0bfef" d="M 368.5,333.5 C 369.043,333.56 369.376,333.893 369.5,334.5C 366.978,336.856 364.312,339.023 361.5,341C 334.041,357.062 306.041,372.062 277.5,386C 269.943,391.948 261.61,396.614 252.5,400C 247.747,402.458 243.247,405.292 239,408.5C 238.292,407.619 237.458,406.953 236.5,406.5C 236.231,404.571 236.731,402.905 238,401.5C 239.073,402.28 240.24,402.113 241.5,401C 245.786,398.051 249.786,394.718 253.5,391C 259.674,389.913 265.008,387.246 269.5,383C 269.673,380.74 269.673,378.407 269.5,376C 270.244,374.961 271.244,374.461 272.5,374.5C 272.414,375.496 272.748,376.329 273.5,377C 280.401,379.088 286.401,377.588 291.5,372.5C 291.842,371.662 292.508,371.328 293.5,371.5C 302.484,367.675 311.151,363.341 319.5,358.5C 326.347,355.912 332.68,352.579 338.5,348.5C 348.18,342.993 358.18,337.993 368.5,333.5 Z"/></g>
<g><path style="opacity:1" fill="#716473" d="M 245.5,353.5 C 245.297,355.39 245.963,356.89 247.5,358C 246.833,359 246.167,360 245.5,361C 245.276,366.776 244.11,372.609 242,378.5C 239.372,382.614 236.872,382.948 234.5,379.5C 234.687,377.436 235.187,375.436 236,373.5C 236.333,374.5 236.667,375.5 237,376.5C 239.158,373.877 240.658,370.877 241.5,367.5C 240.554,364.309 240.554,360.976 241.5,357.5C 242.521,355.812 243.855,354.479 245.5,353.5 Z"/></g>
<g><path style="opacity:1" fill="#948398" d="M 316.5,358.5 C 317.5,358.5 318.5,358.5 319.5,358.5C 311.151,363.341 302.484,367.675 293.5,371.5C 293.833,370.833 294.167,370.167 294.5,369.5C 302.151,366.341 309.484,362.675 316.5,358.5 Z"/></g>
<g><path style="opacity:1" fill="#ac98b4" d="M 252.5,358.5 C 255.184,360.193 257.851,361.86 260.5,363.5C 263.518,365.526 266.518,367.526 269.5,369.5C 269.5,369.833 269.5,370.167 269.5,370.5C 268.178,370.33 267.011,370.663 266,371.5C 265.383,370.551 265.549,369.718 266.5,369C 264.945,367.711 263.279,367.044 261.5,367C 261.412,370.557 260.079,373.89 257.5,377C 257.833,377.333 258.167,377.667 258.5,378C 253.878,384.344 248.544,390.677 242.5,397C 240.044,398.619 237.544,399.119 235,398.5C 234.51,399.793 234.343,401.127 234.5,402.5C 233.527,400.052 233.194,397.385 233.5,394.5C 233.027,388.268 233.861,387.601 236,392.5C 236.605,390.519 237.605,390.185 239,391.5C 242.247,387.341 245.247,383.008 248,378.5C 249.688,373.208 250.188,368.208 249.5,363.5C 251.278,362.274 252.278,360.607 252.5,358.5 Z"/></g>
<g><path style="opacity:1" fill="#644045" d="M 281.5,362.5 C 279.596,362.738 278.262,363.738 277.5,365.5C 276.833,365.833 276.167,366.167 275.5,366.5C 276.373,364.114 277.873,362.114 280,360.5C 280.717,361.044 281.217,361.711 281.5,362.5 Z"/></g>
<g><path style="opacity:1" fill="#cab0d5" d="M 269.5,370.5 C 269.804,372.796 270.804,373.129 272.5,371.5C 272.5,372.5 272.5,373.5 272.5,374.5C 271.244,374.461 270.244,374.961 269.5,376C 269.673,378.407 269.673,380.74 269.5,383C 265.008,387.246 259.674,389.913 253.5,391C 249.786,394.718 245.786,398.051 241.5,401C 240.24,402.113 239.073,402.28 238,401.5C 236.731,402.905 236.231,404.571 236.5,406.5C 235.326,405.486 234.66,404.153 234.5,402.5C 234.343,401.127 234.51,399.793 235,398.5C 237.544,399.119 240.044,398.619 242.5,397C 248.544,390.677 253.878,384.344 258.5,378C 258.167,377.667 257.833,377.333 257.5,377C 260.079,373.89 261.412,370.557 261.5,367C 263.279,367.044 264.945,367.711 266.5,369C 265.549,369.718 265.383,370.551 266,371.5C 267.011,370.663 268.178,370.33 269.5,370.5 Z"/></g>
<g><path style="opacity:1" fill="#4e191e" d="M 275.5,366.5 C 275.068,367.71 274.401,368.71 273.5,369.5C 273.285,367.821 273.952,366.821 275.5,366.5 Z"/></g>
<g><path style="opacity:1" fill="#f0def1" d="M 294.5,369.5 C 294.167,370.167 293.833,370.833 293.5,371.5C 292.508,371.328 291.842,371.662 291.5,372.5C 287.522,374.048 283.522,375.382 279.5,376.5C 276.922,376.558 274.589,375.891 272.5,374.5C 272.5,373.5 272.5,372.5 272.5,371.5C 272.328,370.508 272.662,369.842 273.5,369.5C 274.401,368.71 275.068,367.71 275.5,366.5C 276.167,366.167 276.833,365.833 277.5,365.5C 279.017,365.489 280.184,364.823 281,363.5C 282.399,364.227 283.899,364.727 285.5,365C 287.31,369.239 290.31,370.739 294.5,369.5 Z"/></g>
<g><path style="opacity:1" fill="#36184d" d="M 425.5,309.5 C 362.873,343.482 300.206,377.482 237.5,411.5C 236.286,409.851 234.953,408.185 233.5,406.5C 231.947,400.383 231.613,394.383 232.5,388.5C 232.205,390.735 232.539,392.735 233.5,394.5C 233.194,397.385 233.527,400.052 234.5,402.5C 234.66,404.153 235.326,405.486 236.5,406.5C 237.458,406.953 238.292,407.619 239,408.5C 243.247,405.292 247.747,402.458 252.5,400C 261.61,396.614 269.943,391.948 277.5,386C 306.041,372.062 334.041,357.062 361.5,341C 364.312,339.023 366.978,336.856 369.5,334.5C 369.376,333.893 369.043,333.56 368.5,333.5C 380.151,327.008 392.151,321.008 404.5,315.5C 410.844,314.16 416.511,311.493 421.5,307.5C 422.93,307.579 424.264,307.246 425.5,306.5C 426.562,307.425 426.562,308.425 425.5,309.5 Z"/></g>
<g><path style="opacity:1" fill="#8b7a8f" d="M 291.5,372.5 C 286.401,377.588 280.401,379.088 273.5,377C 272.748,376.329 272.414,375.496 272.5,374.5C 274.589,375.891 276.922,376.558 279.5,376.5C 283.522,375.382 287.522,374.048 291.5,372.5 Z"/></g>
<g><path style="opacity:1" fill="#201a2a" d="M 228.5,410.5 C 231.43,411.299 234.43,411.632 237.5,411.5C 235.034,412.634 232.367,412.801 229.5,412C 228.944,411.617 228.611,411.117 228.5,410.5 Z"/></g>
</svg>
